<svg xmlns="http://www.w3.org/2000/svg" version="1.1" width="1024" height="1024">
<rect x="0" y="0" width="1024" height="1024" fill="#041015" />
<g transform="scale(4.000000) translate(0.5 0.5)">
<polygon fill="#34f8ff" fill-opacity="0.501961" points="31,179 37,107 87,192" />
<polygon fill="#33f4ff" fill-opacity="0.501961" points="227,177 170,191 218,105" />
<polygon fill="#36feff" fill-opacity="0.501961" points="130,59 175,88 82,87" />
<polygon fill="#28cfff" fill-opacity="0.501961" points="28,128 64,196 72,141" />
<polygon fill="#29d0ff" fill-opacity="0.501961" points="230,130 185,140 187,196" />
<polygon fill="#29cbff" fill-opacity="0.501961" points="130,99 92,75 162,73" />
<polygon fill="#000000" fill-opacity="0.501961" points="47,-12 271,175 271,-16" />
<polygon fill="#000000" fill-opacity="0.501961" points="134,91 235,271 6,271" />
<polygon fill="#000000" fill-opacity="0.501961" points="176,6 1,-16 -16,178" />
<polygon fill="#23b4ff" fill-opacity="0.501961" points="223,173 178,195 222,122" />
<polygon fill="#23b9ff" fill-opacity="0.501961" points="33,122 36,174 74,192" />
<polygon fill="#0a0c12" fill-opacity="0.501961" points="82,81 228,123 69,200" />
<polygon fill="#22b9ff" fill-opacity="0.501961" points="122,62 123,93 165,79" />
<polygon fill="#000000" fill-opacity="0.501961" points="-16,148 4,271 144,233" />
<polygon fill="#000000" fill-opacity="0.501961" points="271,146 141,221 253,271" />
<polygon fill="#080e14" fill-opacity="0.501961" points="187,198 48,132 174,75" />
<polygon fill="#000000" fill-opacity="0.501961" points="-16,6 46,134 155,-11" />
<polygon fill="#23b6ff" fill-opacity="0.501961" points="42,134 70,190 69,142" />
<polygon fill="#000000" fill-opacity="0.501961" points="256,-16 80,5 271,162" />
<polygon fill="#22b0fe" fill-opacity="0.501961" points="131,64 134,95 91,78" />
<polygon fill="#22affa" fill-opacity="0.501961" points="186,142 186,190 224,128" />
<polygon fill="#010000" fill-opacity="0.501961" points="227,271 223,128 271,139" />
<polygon fill="#060a10" fill-opacity="0.501961" points="182,126 82,74 14,128" />
<polygon fill="#132a38" fill-opacity="0.501961" points="119,155 156,138 70,103" />
<polygon fill="#000000" fill-opacity="0.501961" points="43,271 -16,206 15,10" />
<polygon fill="#000000" fill-opacity="0.501961" points="271,211 -16,185 126,271" />
<polygon fill="#000000" fill-opacity="0.501961" points="270,96 159,-14 180,142" />
<polygon fill="#1b384c" fill-opacity="0.501961" points="143,121 183,103 204,112" />
<polygon fill="#000000" fill-opacity="0.501961" points="136,97 129,148 170,81" />
<polygon fill="#000000" fill-opacity="0.501961" points="271,2 114,68 -16,-1" />
<polygon fill="#000000" fill-opacity="0.501961" points="75,142 142,155 74,191" />
<polygon fill="#224862" fill-opacity="0.501961" points="107,182 116,166 113,146" />
<polygon fill="#244c67" fill-opacity="0.501961" points="149,119 139,124 173,138" />
<polygon fill="#22425d" fill-opacity="0.501961" points="170,108 160,73 170,73" />
<polygon fill="#000000" fill-opacity="0.501961" points="183,105 180,187 146,174" />
<polygon fill="#22adec" fill-opacity="0.501961" points="134,67 125,96 162,78" />
<polygon fill="#29618f" fill-opacity="0.501961" points="29,136 30,175 36,159" />
<polygon fill="#21abef" fill-opacity="0.501961" points="33,172 68,189 34,127" />
<polygon fill="#000000" fill-opacity="0.501961" points="89,85 125,99 125,143" />
<polygon fill="#264a67" fill-opacity="0.501961" points="86,104 85,74 93,74" />
<polygon fill="#234964" fill-opacity="0.501961" points="144,144 145,178 138,168" />
<polygon fill="#2c6287" fill-opacity="0.501961" points="211,183 199,182 185,195" />
<polygon fill="#22b8fd" fill-opacity="0.501961" points="220,174 189,188 221,148" />
<polygon fill="#234661" fill-opacity="0.501961" points="183,191 160,188 141,173" />
<polygon fill="#2a5475" fill-opacity="0.501961" points="53,187 71,196 84,190" />
<polygon fill="#27506d" fill-opacity="0.501961" points="54,108 74,105 39,121" />
<polygon fill="#193044" fill-opacity="0.501961" points="169,133 185,168 186,142" />
<polygon fill="#1e4056" fill-opacity="0.501961" points="123,107 129,133 132,93" />
<polygon fill="#2d648b" fill-opacity="0.501961" points="121,62 94,74 105,75" />
<polygon fill="#295575" fill-opacity="0.501961" points="218,119 226,142 227,121" />
<polygon fill="#1e2f4a" fill-opacity="0.501961" points="149,63 168,80 131,63" />
<polygon fill="#000000" fill-opacity="0.501961" points="37,123 83,113 75,140" />
<polygon fill="#000000" fill-opacity="0.501961" points="63,271 271,252 121,163" />
<polygon fill="#1c3c51" fill-opacity="0.501961" points="80,189 104,186 112,173" />
<polygon fill="#000000" fill-opacity="0.501961" points="191,109 147,123 192,141" />
<polygon fill="#26506e" fill-opacity="0.501961" points="172,116 167,103 168,131" />
<polygon fill="#2b5476" fill-opacity="0.501961" points="195,109 222,120 208,119" />
<polygon fill="#000000" fill-opacity="0.501961" points="3,134 83,96 -2,-16" />
<polygon fill="#1f3554" fill-opacity="0.501961" points="71,178 76,158 70,146" />
<polygon fill="#1e4058" fill-opacity="0.501961" points="70,141 111,123 90,140" />
<polygon fill="#264e6b" fill-opacity="0.501961" points="88,96 83,112 88,128" />
<polygon fill="#000000" fill-opacity="0.501961" points="130,100 164,112 167,82" />
<polygon fill="#000000" fill-opacity="0.501961" points="181,140 182,202 145,142" />
<polygon fill="#000000" fill-opacity="0.501961" points="74,146 76,192 108,128" />
<polygon fill="#000000" fill-opacity="0.501961" points="-16,255 271,209 103,182" />
<polygon fill="#21abea" fill-opacity="0.501961" points="68,188 45,133 70,145" />
<polygon fill="#244f70" fill-opacity="0.501961" points="221,147 226,138 228,165" />
<polygon fill="#21455f" fill-opacity="0.501961" points="141,148 124,147 160,135" />
<polygon fill="#21abe6" fill-opacity="0.501961" points="128,64 95,79 127,95" />
<polygon fill="#21abe5" fill-opacity="0.501961" points="221,172 221,128 185,146" />
<polygon fill="#23415a" fill-opacity="0.501961" points="185,197 192,189 169,189" />
<polygon fill="#295278" fill-opacity="0.501961" points="100,85 121,96 114,88" />
<polygon fill="#1a3548" fill-opacity="0.501961" points="183,145 167,136 201,135" />
<polygon fill="#000000" fill-opacity="0.501961" points="116,135 126,147 125,102" />
<polygon fill="#224761" fill-opacity="0.501961" points="121,148 114,138 94,135" />
<polygon fill="#000000" fill-opacity="0.501961" points="271,121 257,-16 136,61" />
<polygon fill="#24435f" fill-opacity="0.501961" points="30,121 49,114 31,129" />
<polygon fill="#000000" fill-opacity="0.501961" points="140,146 115,164 140,228" />
<polygon fill="#000000" fill-opacity="0.501961" points="183,107 218,124 179,139" />
<polygon fill="#21445f" fill-opacity="0.501961" points="115,134 96,114 112,122" />
<polygon fill="#000000" fill-opacity="0.501961" points="89,116 108,123 89,130" />
<polygon fill="#000000" fill-opacity="0.501961" points="230,271 271,190 226,33" />
<polygon fill="#000000" fill-opacity="0.501961" points="88,81 126,101 94,112" />
<polygon fill="#21abe3" fill-opacity="0.501961" points="186,191 186,144 222,128" />
<polygon fill="#1b3045" fill-opacity="0.501961" points="77,148 76,138 47,130" />
<polygon fill="#000000" fill-opacity="0.501961" points="76,141 36,123 86,114" />
<polygon fill="#233b5b" fill-opacity="0.501961" points="52,181 38,181 63,191" />
<polygon fill="#224762" fill-opacity="0.501961" points="140,144 146,141 142,120" />
<polygon fill="#000000" fill-opacity="0.501961" points="74,197 -16,158 2,271" />
<polygon fill="#000000" fill-opacity="0.501961" points="110,174 110,144 75,184" />
<polygon fill="#000000" fill-opacity="0.501961" points="130,138 151,107 130,98" />
<polygon fill="#21aae4" fill-opacity="0.501961" points="34,127 68,145 35,175" />
<polygon fill="#000000" fill-opacity="0.501961" points="86,95 63,-16 -14,142" />
<polygon fill="#1b2741" fill-opacity="0.501961" points="131,57 121,61 148,67" />
<polygon fill="#223e56" fill-opacity="0.501961" points="131,100 147,89 123,97" />
<polygon fill="#000000" fill-opacity="0.501961" points="110,130 97,134 111,138" />
<polygon fill="#254863" fill-opacity="0.501961" points="34,136 29,124 32,148" />
<polygon fill="#21a9e1" fill-opacity="0.501961" points="69,191 69,143 35,137" />
<polygon fill="#244b67" fill-opacity="0.501961" points="114,171 115,178 107,177" />
<polygon fill="#21435c" fill-opacity="0.501961" points="122,149 129,137 132,151" />
</g>
</svg>